<svg width="21" height="10" viewBox="0 0 21 10" fill="none" xmlns="http://www.w3.org/2000/svg">
<path d="M1.5 4.50061L20.3429 4.50061C20.4755 4.50061 20.6027 4.55329 20.6964 4.64706C20.7902 4.74083 20.8429 4.868 20.8429 5.00061C20.8429 5.13322 20.7902 5.2604 20.6964 5.35416C20.6027 5.44793 20.4755 5.50061 20.3429 5.50061L1.5 5.50061C1.36739 5.50061 1.24021 5.44793 1.14645 5.35416C1.05268 5.2604 1 5.13322 1 5.00061C1 4.868 1.05268 4.74083 1.14645 4.64706C1.24021 4.55329 1.36739 4.50061 1.5 4.50061Z" fill="white"/>
<path d="M1.20789 5.00063L5.35489 9.14663C5.44878 9.24052 5.50152 9.36786 5.50152 9.50063C5.50152 9.63341 5.44878 9.76074 5.35489 9.85463C5.26101 9.94852 5.13367 10.0013 5.00089 10.0013C4.86812 10.0013 4.74078 9.94852 4.64689 9.85463L0.146894 5.35463C0.10033 5.30819 0.0633878 5.25301 0.0381813 5.19226C0.0129749 5.13152 0 5.0664 0 5.00063C0 4.93486 0.0129749 4.86974 0.0381813 4.809C0.0633878 4.74825 0.10033 4.69308 0.146894 4.64663L4.64689 0.146631C4.74078 0.0527448 4.86812 0 5.00089 0C5.13367 0 5.26101 0.0527448 5.35489 0.146631C5.44878 0.240518 5.50152 0.367856 5.50152 0.500632C5.50152 0.633407 5.44878 0.760745 5.35489 0.854632L1.20789 5.00063Z" fill="white"/>
</svg>
