<svg width="16" height="16" viewBox="0 0 16 16" fill="none" xmlns="http://www.w3.org/2000/svg">
<path d="M13.6235 1.68819C13.3907 1.45509 13.1141 1.27017 12.8097 1.14401C12.5054 1.01784 12.1791 0.952904 11.8496 0.952904C11.5201 0.952904 11.1938 1.01784 10.8894 1.14401C10.5851 1.27017 10.3085 1.45509 10.0757 1.68819L2.54156 9.22228C2.18392 9.58048 1.92879 10.028 1.80269 10.5182L0.970037 13.7588C0.949389 13.8395 0.950128 13.9241 0.972182 14.0043C0.994237 14.0846 1.03684 14.1577 1.09579 14.2165C1.15475 14.2752 1.228 14.3176 1.30833 14.3394C1.38867 14.3612 1.47329 14.3616 1.55385 14.3407L4.79355 13.509C5.28394 13.3834 5.73152 13.1282 6.08943 12.7702L13.6235 5.23607C13.8566 5.00319 14.0415 4.72665 14.1677 4.42227C14.2939 4.11789 14.3588 3.79162 14.3588 3.46213C14.3588 3.13263 14.2939 2.80637 14.1677 2.50198C14.0415 2.1976 13.8566 1.92106 13.6235 1.68819ZM10.7523 2.36484C11.0433 2.07382 11.438 1.91033 11.8496 1.91033C12.2612 1.91033 12.6559 2.07382 12.9469 2.36484C13.2379 2.65586 13.4014 3.05056 13.4014 3.46213C13.4014 3.87369 13.2379 4.26839 12.9469 4.55941L12.2013 5.30497L10.0067 3.1104L10.7523 2.36484ZM9.33009 3.78705L11.5247 5.98163L5.41278 12.0935C5.1759 12.3302 4.8797 12.4988 4.55524 12.5816L2.09843 13.2133L2.7301 10.7565C2.81248 10.4318 2.98114 10.1355 3.21821 9.89894L9.33009 3.78705Z" fill="#1D200B"/>
</svg>
