<svg width="28" height="28" viewBox="0 0 28 28" fill="none" xmlns="http://www.w3.org/2000/svg">
<path d="M13.4167 21C18.0834 21 22.1201 18.41 24.1967 14.5833C22.1201 10.7567 18.0834 8.16667 13.4167 8.16667C8.75008 8.16667 4.71341 10.7567 2.63674 14.5833C4.71341 18.41 8.75008 21 13.4167 21ZM13.4167 7C18.7367 7 23.3334 10.0917 25.5034 14.5833C23.3334 19.075 18.7367 22.1667 13.4167 22.1667C8.09674 22.1667 3.50008 19.075 1.33008 14.5833C3.50008 10.0917 8.09674 7 13.4167 7ZM13.4167 9.33333C16.3334 9.33333 18.6667 11.6667 18.6667 14.5833C18.6667 17.5 16.3334 19.8333 13.4167 19.8333C10.5001 19.8333 8.16675 17.5 8.16675 14.5833C8.16675 11.6667 10.5001 9.33333 13.4167 9.33333ZM13.4167 10.5C12.3338 10.5 11.2952 10.9302 10.5294 11.696C9.76362 12.4618 9.33341 13.5004 9.33341 14.5833C9.33341 15.6663 9.76362 16.7049 10.5294 17.4707C11.2952 18.2365 12.3338 18.6667 13.4167 18.6667C14.4997 18.6667 15.5383 18.2365 16.3041 17.4707C17.0699 16.7049 17.5001 15.6663 17.5001 14.5833C17.5001 13.5004 17.0699 12.4618 16.3041 11.696C15.5383 10.9302 14.4997 10.5 13.4167 10.5Z" fill="#A8A8A8"/>
</svg>
